<svg viewBox="0 0 168.11 168.11" xmlns="http://www.w3.org/2000/svg">
 <g transform="translate(-22.569 -60.503)">
  <g stroke="#fff" fill="#fff" stroke-linecap="round" stroke-linejoin="round" stroke-width="5">
   <path d="m58.486 189.35q5.2365-3.5829 12.54-5.9945 4.6164 12.54 11.713 19.706-13.574-3.9963-24.253-13.711z"/>
   <path d="m79.984 181.15q6.4768-1.2402 15.021-1.5847v22.049q-8.8194-3.9274-15.021-20.464z"/>
   <path d="m104.03 179.56q8.4749 0.34451 14.952 1.5847-6.2012 16.536-14.952 20.464z"/>
   <path d="m104.03 170.54v-21.497h20.946q-0.41341 12.058-3.3762 23.564-8.7505-1.7914-17.57-2.067z"/>
   <path d="m73.989 149.04h21.015v21.497q-8.7505 0.27561-17.639 2.067-2.9628-11.507-3.3762-23.564z"/>
   <path d="m38.711 149.04h26.045q0.48231 13.918 3.5829 25.907-9.6463 3.1695-15.985 7.9237-12.196-14.952-13.643-33.831z"/>
   <path d="m73.989 140.01q0.48231-11.92 3.2384-23.22 8.7505 1.8604 17.777 2.136v21.084z"/>
   <path d="m104.03 140.01v-21.084q8.9572-0.27561 17.708-2.136 2.6872 10.749 3.2384 23.22z"/>
   <path d="m134.21 140.01q-0.48231-13.711-3.5829-25.563 9.7841-3.1695 16.123-7.9237 12.058 14.676 13.505 33.486z"/>
   <path d="m104.03 87.579q8.9572 3.9963 15.09 20.739-7.3036 1.3091-15.09 1.5848z"/>
   <path d="m79.846 108.32q6.1323-16.743 15.158-20.739v22.324q-7.8548-0.27561-15.158-1.5848z"/>
   <path d="m116.23 86.063q13.711 3.9963 24.46 13.918-5.0987 3.5829-12.678 6.0634-4.5475-12.54-11.782-19.982z"/>
  </g>
  <path d="m169.76 144.56c0-12.586-3.2384-24.345-9.7152-35.278-6.2471-10.611-14.676-19.063-25.287-25.356-10.978-6.4308-22.761-9.6463-35.347-9.6463-9.837 0-19.169 1.9642-27.996 5.8926m-42.215 64.387c0 12.586 3.2384 24.345 9.7152 35.278 6.2471 10.611 14.676 19.04 25.287 25.287 10.932 6.4768 22.692 9.7152 35.278 9.7152 4.8747 0 9.6253-0.48578 14.252-1.4573" fill="none" stroke="#fff" stroke-linecap="round" stroke-width="5"/>
  <g transform="matrix(2.7064 .64537 -.64537 2.7064 -412.16 -113.12)">
   <path fill="#fff" d="m220.4 64.294a3.9688 3.175 0 0 1-3.9688 3.175 3.9688 3.175 0 0 1-3.9688-3.175 3.9688 3.175 0 0 1 3.9688-3.175 3.9688 3.175 0 0 1 3.9688 3.175z" stroke-width=".26458"/>
   <path fill="#fff" d="m233.63 61.648a3.9688 3.175 0 0 1-3.9688 3.175 3.9688 3.175 0 0 1-3.9688-3.175 3.9688 3.175 0 0 1 3.9688-3.175 3.9688 3.175 0 0 1 3.9688 3.175z" stroke-width=".26458"/>
   <path d="m219.08 64.294v-15.875l13.229-2.6458v15.875" fill="none" stroke="#fff" stroke-linecap="round" stroke-linejoin="round" stroke-width="2.6458"/>
   <path d="m219.08 51.065 13.229-2.6458" fill="none" stroke="#fff" stroke-linecap="round" stroke-linejoin="round" stroke-width="2.6458"/>
  </g>
  <g transform="rotate(13.014 633.72 205.1)">
   <path fill="#fff" d="m41.914 262.14a11.042 8.8337 0 0 1-11.042 8.8337 11.042 8.8337 0 0 1-11.042-8.8337 11.042 8.8337 0 0 1 11.042-8.8337 11.042 8.8337 0 0 1 11.042 8.8337z" stroke-width=".736"/>
   <path d="m38.233 262.14v-44.169s0.93413 5.7329 2.4609 8.1098c3.0244 4.7081 7.5029 5.6785 10.685 10.954s1.9979 14.528 1.9979 14.528" fill="none" stroke="#fff" stroke-linecap="round" stroke-linejoin="round" stroke-width="7.3614"/>
  </g>
 </g>
</svg>
