<svg viewBox="0 0 53.005 21.154" xml:space="preserve" xmlns="http://www.w3.org/2000/svg"><g transform="translate(-63.907 -90.697)"><g transform="matrix(.11223 0 0 .11223 62.755 85.111)" fill="none" stroke="#fff" stroke-width="26.457"><path d="m23.5 99.999s20.778-31.922 50-31.5c31.097 0.44888 53.379 25.136 80.321 24.092 26.815-1.0398 65.679-29.592 65.679-29.592s-62.366 156.39-131.71 161.88c-22.293 1.764-50.011-12.965-50-44.732 0.0082-22.342 20.778-45.061 50-44.639 31.097 0.44888 53.379 25.136 80.321 24.092 26.815-1.0398 65.679-29.592 65.679-29.592" fill="none" stroke="#fff" stroke-linecap="round" stroke-linejoin="round" stroke-width="26.457"/></g><path d="m103.13 107.58h-2.5523v-14.516h2.5523zm4.5264-12.442h-11.565v-2.0737h11.565zm6.833 9.5013q0-0.33898-0.17946-0.61814-0.16949-0.27915-0.66799-0.51843-0.49849-0.23928-1.4656-0.43868-1.1465-0.23928-2.0239-0.63807-0.86738-0.3988-1.3559-1.0269-0.47856-0.62811-0.47856-1.5354 0-0.87735 0.4985-1.6151 0.50847-0.74774 1.4456-1.1964 0.94714-0.45862 2.2333-0.45862 1.3559 0 2.333 0.45862 0.97706 0.44865 1.4955 1.2263 0.52841 0.76768 0.52841 1.7447h-2.4725q0-0.63808-0.47856-1.1166-0.46859-0.48853-1.4157-0.48853-0.58822 0-0.98702 0.18943-0.38883 0.18943-0.58823 0.48853-0.18942 0.2991-0.18942 0.65802 0 0.34895 0.18942 0.60816 0.1994 0.25922 0.66799 0.45862 0.47855 0.1994 1.336 0.37886 1.2363 0.25921 2.1336 0.65801 0.89729 0.38883 1.3758 1.0369 0.48853 0.63808 0.48853 1.6251 0 0.94714-0.54835 1.6849-0.53837 0.73777-1.5254 1.1565-0.97705 0.41873-2.313 0.41873-1.4855 0-2.5024-0.5284-1.0169-0.52841-1.5453-1.3459-0.51843-0.8275-0.51843-1.7148h2.3828q0.0399 0.63808 0.35892 1.0269 0.329 0.38882 0.81753 0.56828 0.4985 0.16949 1.0369 0.16949 0.63808 0 1.0568-0.16949 0.42871-0.16949 0.64805-0.45862 0.22931-0.29909 0.22931-0.68792z" fill="#fff" aria-label="Ts"/></g></svg>